<mxfile host="app.diagrams.net" modified="2023-08-01T17:10:54.575Z" agent="Mozilla/5.0 (Windows NT 10.0; Win64; x64) AppleWebKit/537.36 (KHTML, like Gecko) Chrome/115.0.0.0 Safari/537.36" version="21.6.6" etag="1mqpDJHylzEKtZ-npj12" type="github">
  <diagram name="PÃ¡gina-1" id="NCm2k3s35J0FvBVWNJGd">
    <mxGraphModel>
      <root>
        <mxCell id="0" />
        <mxCell id="1" parent="0" />
      </root>
    </mxGraphModel>
  </diagram>
</mxfile>
